<?xml version="1.0" encoding="UTF-8" standalone="no"?>
<!-- Created with Inkscape (http://www.inkscape.org/) -->

<svg
   version="1.1"
   id="svg1"
   width="395.72131"
   height="146.64275"
   viewBox="0 0 395.72132 146.64274"
   sodipodi:docname="logoJs.png"
   xmlns:inkscape="http://www.inkscape.org/namespaces/inkscape"
   xmlns:sodipodi="http://sodipodi.sourceforge.net/DTD/sodipodi-0.dtd"
   xmlns="http://www.w3.org/2000/svg"
   xmlns:svg="http://www.w3.org/2000/svg">
  <defs
     id="defs1" />
  <sodipodi:namedview
     id="namedview1"
     pagecolor="#ffffff"
     bordercolor="#000000"
     borderopacity="0.25"
     inkscape:showpageshadow="2"
     inkscape:pageopacity="0.0"
     inkscape:pagecheckerboard="0"
     inkscape:deskcolor="#d1d1d1" />
  <g
     inkscape:groupmode="layer"
     inkscape:label="Image"
     id="g1"
     transform="translate(-7.4238681,182.67896)">
    <path
       style="fill:#000000"
       d="m 169.22205,-37.436208 c -0.30337,-0.77 -0.56207,-3.38 -0.57489,-5.8 l -0.0233,-4.4 2.54977,0.25503 c 1.40238,0.14026 3.32286,-0.15872 4.26773,-0.6644 3.62058,-1.93767 3.98249,-4.69716 3.98249,-30.36493 v -24.025702 h -3.6 -3.6 v -5.6 -5.6 h 16 16 v 5.6 5.6 h -3.55044 -3.55044 l -0.24956,26.200002 c -0.23986,25.18211 -0.31766,26.32727 -2.00242,29.47575 -3.72756,6.96603 -10.88269,10.72425 -20.41744,10.72425 -3.7136,0 -4.7938,-0.28907 -5.2315,-1.4 z m -87.138806,-15.91003 c -4.840413,-1.71515 -10.128778,-6.71456 -12.20301,-11.53625 -3.578128,-8.31758 -1.898623,-19.78645 3.786523,-25.8571 5.694167,-6.08027 19.436027,-8.482268 27.428613,-4.79435 5.0021,2.30805 9.26877,6.76223 10.36021,10.81554 0.9511,3.53213 1.18319,12.16364 0.36275,13.49114 -0.29017,0.4695 -5.83528,0.79105 -13.641686,0.79105 -14.47961,0 -14.96961,0.19891 -11.22175,4.55539 1.77434,2.06247 2.35679,2.23585 7.1779,2.13667 3.84288,-0.079 6.053476,-0.58385 8.261286,-1.88649 l 3.01443,-1.77856 3.40767,3.76389 c 1.87422,2.07015 3.40522,3.99907 3.40221,4.2865 -0.0113,1.08012 -5.37139,4.06596 -10.1693,5.66481 -5.903716,1.96736 -14.950406,2.12493 -19.965846,0.34776 z m 15.36303,-28.08549 c -0.85311,-3.39905 -1.9378,-4.20448 -5.6623,-4.20448 -2.76773,0 -3.76955,0.4139 -5.10204,2.10789 -2.9483,3.74815 -2.33634,4.29211 4.82866,4.29211 h 6.48672 z m 120.925566,28.58204 c -3.17708,-0.95363 -7.53502,-4.45415 -8.94883,-7.18814 -1.52827,-2.95535 -1.53744,-8.59334 -0.0199,-12.22534 3.06962,-7.34664 15.30141,-11.82449 22.31219,-8.16811 2.94616,1.53653 2.90855,1.54694 2.90855,-0.80493 0,-3.51311 -2.58559,-5.2 -7.97038,-5.2 -2.88397,0 -6.37558,0.63271 -8.82962,1.6 -2.23257,0.88 -4.19285,1.6 -4.35617,1.6 -0.16332,0 -1.03613,-2.18886 -1.93958,-4.86414 l -1.64265,-4.86413 5.10493,-2.31469 c 9.22295,-4.181881 19.7272,-4.371781 27.34535,-0.49436 7.86873,4.00496 9.15408,6.80702 9.69599,21.13732 l 0.40085,10.6 h 2.29564 c 2.29207,0 2.29564,0.008 2.29564,5.2 v 5.2 h -9.10242 c -8.54756,0 -9.17621,-0.10972 -10.31289,-1.8 l -1.21046,-1.8 -1.88711,1.74671 c -1.03792,0.96069 -2.90055,2.13069 -4.1392,2.6 -2.6198,0.99262 -8.75774,1.01298 -11.99993,0.0398 z m 14.78902,-11.71051 c 1.67125,-1.51246 1.91674,-4.30226 0.50299,-5.71601 -1.37792,-1.37792 -6.70109,-1.18462 -8.18285,0.29715 -1.46147,1.46146 -1.59058,3.02502 -0.429,5.19545 1.05354,1.96855 6.02902,2.10564 8.10886,0.22341 z m 47.53443,11.58664 c -3.49884,-0.77286 -8.47144,-3.57577 -8.47144,-4.77511 0,-0.43008 -0.36,-0.55947 -0.8,-0.28754 -0.44,0.27194 -0.8,1.37318 -0.8,2.44722 0,1.8844 -0.1961,1.95278 -5.6,1.95278 h -5.6 v -7.6 -7.6 h 6 c 4.82588,0 6,0.23713 6,1.21176 0,3.1541 9.78614,5.85578 11.91585,3.28964 1.69278,-2.03968 0.0246,-3.47208 -6.12433,-5.25873 -11.87453,-3.45029 -16.1682,-6.95572 -16.81928,-13.73155 -0.67602,-7.0355 3.21848,-11.68979 11.28339,-13.48472 4.88777,-1.087822 9.42102,0.008 13.54437,3.27316 l 3,2.37584 v -2.4377 -2.4377 h 5.6 5.6 v 7.6 7.6 h -5.47159 c -5.0314,0 -5.54348,-0.1578 -6.36531,-1.96152 -2.0012,-4.39214 -10.68051,-6.03709 -11.23309,-2.12895 -0.33745,2.38658 0.16033,2.69261 9.4282,5.79651 10.19683,3.41502 13.74067,6.5926 14.23655,12.7652 0.2869,3.57122 0.0201,4.81877 -1.52466,7.12876 -3.23887,4.8434 -11.33204,7.69107 -17.79866,6.26265 z m 36.08253,-0.64022 c -5.54699,-2.16735 -8.67128,-4.84218 -11.36056,-9.72623 -2.12268,-3.85503 -2.36702,-5.03555 -2.3795,-11.4962 -0.0126,-6.49737 0.21736,-7.61752 2.35591,-11.4784 8.6532,-15.622262 36.03638,-14.414522 40.8521,1.80178 1.22541,4.1264 1.50295,9.18284 0.67385,12.27662 -0.47609,1.77655 -0.65839,1.8 -13.98907,1.8 -7.42869,0 -13.5067,0.19788 -13.5067,0.43973 0,1.93325 2.80102,5.16854 5.14434,5.9419 3.3236,1.09689 10.50686,0.008 13.68517,-2.07453 2.05789,-1.34838 2.08117,-1.33757 5.53205,2.56941 1.906,2.15792 3.30577,4.18922 3.1106,4.514 -0.80279,1.33592 -7.73142,4.82338 -11.66096,5.86945 -5.88669,1.56708 -13.80727,1.37932 -18.45723,-0.43753 z m 15.44603,-27.35944 c 0,-2.90174 -2.27609,-4.66299 -6.02603,-4.66299 -3.57313,0 -4.57304,0.71529 -5.9079,4.22622 l -0.82647,2.17378 h 6.3802 c 6.01461,0 6.3802,-0.0995 6.3802,-1.73701 z m 42.60405,26.44754 c -2.2963,-1.47062 -2.65246,-1.51523 -3.08559,-0.38652 -0.41175,1.07301 -2.0668,1.27599 -10.40405,1.27599 h -9.91441 v -5.6 c 0,-5.44 0.0571,-5.6 2,-5.6 h 2 v -20.8 -20.800002 h -2 c -1.94286,0 -2,-0.16 -2,-5.6 v -5.6 h 10.4 10.4 v 12 c 0,6.600004 0.12469,12.000002 0.27709,12.000002 0.1524,0 1.5024,-0.63 3,-1.4 1.88734,-0.97038 4.58204,-1.4 8.78133,-1.4 5.29594,0 6.48436,0.28187 9.44277,2.23965 13.40112,8.86845 12.25636,33.44118 -1.85655,39.85145 -4.68561,2.12827 -13.58265,2.03399 -17.04059,-0.18057 z m 7.99471,-12.71053 c 2.87813,-5.76139 0.96026,-16.27783 -3.15703,-17.31121 -2.61135,-0.6554 -4.00244,0.08 -5.83416,3.08435 -2.76989,4.54306 -2.09475,12.00103 1.45435,16.06568 2.10822,2.41447 5.87065,1.49652 7.53684,-1.83882 z m -375.3987418,8.06548 v -5.66548 h 2.7999998 2.799999 v -18.8 -18.800002 H 10.223868 7.4238682 v -5.6 -5.6 H 22.58449 c 8.338343,0 17.068343,0.40126 19.4,0.89167 10.397594,2.18693 19.042284,8.88529 22.297627,17.277362 2.461941,6.34673 2.460842,17.06458 -0.0024,23.55978 -3.007125,7.92928 -7.875778,12.80588 -16.013106,16.03923 -4.023003,1.59854 -6.162162,1.79354 -22.642727,2.06412 l -18.2000158,0.2988 z m 34.1126458,-9.10957 c 7.249884,-7.911 6.498761,-26.15364 -1.312647,-31.880442 -1.1,-0.80645 -3.71,-1.69727 -5.8,-1.97961 l -3.8,-0.51334 v 19.010532 19.01052 l 4.150379,-0.3988 c 3.479559,-0.33434 4.572536,-0.85945 6.762268,-3.24886 z m 84.302786,-1.32504 c -7.21413,-14.41452 -8.22434,-16.03087 -10.01926,-16.03087 -1.92351,0 -1.99618,-0.18931 -1.99618,-5.2 v -5.2 h 13.2 13.2 v 5.2 c 0,5.01334 -0.0718,5.2 -2,5.2 -1.1,0 -2,0.19085 -2,0.42411 0,0.23326 0.88029,2.5156 1.95622,5.07187 1.07592,2.55628 2.40288,6.41543 2.94881,8.5759 l 0.9926,3.92812 1.32209,-4.4 c 0.72716,-2.42 2.28019,-6.27803 3.45119,-8.5734 1.171,-2.29538 2.12909,-4.36538 2.12909,-4.6 0,-0.23463 -1.08,-0.4266 -2.4,-0.4266 h -2.4 v -5.2 -5.2 h 11.2 11.2 v 5.2 c 0,5.13396 -0.0279,5.20029 -2.2,5.22241 -2.07563,0.0211 -2.61016,0.91439 -9.45482,15.8 l -7.25482,15.77759 -6.92592,0.23087 -6.92592,0.23086 z m 37.3848,-72.429162 c -2.52987,-0.64048 -5.51462,-1.76395 -6.63279,-2.4966 -3.14307,-2.05942 -5.84867,-7.42913 -7.88323,-15.64557 -1.0214,-4.12486 -2.44819,-8.64283 -3.17066,-10.03992 -0.80376,-1.55431 -1.31356,-4.46541 -1.31356,-7.50077 v -4.96061 l 15.8,0.54913 c 20.27038,0.7045 73.8033,0.70222 93.19999,-0.004 l 15,-0.54612 v 4.9611 c 0,3.03581 -0.50976,5.94687 -1.31357,7.50126 -0.72246,1.39709 -2.14926,5.91505 -3.17066,10.03992 -3.2097,12.96221 -6.47927,16.58043 -16.68807,18.46763 -12.23497,2.26176 -20.9107,0.46602 -26.95624,-5.57952 -3.71695,-3.71694 -8.66945,-12.4214 -8.67083,-15.23975 -10e-4,-2.1515 -3.17019,-5.50789 -5.20063,-5.50789 -2.03043,0 -5.19958,3.35639 -5.20063,5.50789 -0.001,2.2398 -4.49033,10.75577 -7.48231,14.19373 -4.37648,5.02885 -9.03345,6.87905 -18.11706,7.19785 -4.86508,0.17075 -9.25525,-0.15232 -12.19975,-0.89776 z m 19.62162,-2.84981 c 7.11334,-1.97539 12.67334,-10.90321 12.72834,-20.43822 0.0252,-4.37168 -0.26902,-5.53703 -1.81308,-7.1806 -2.58766,-2.75444 -8.55191,-4.34142 -18.33713,-4.87919 -10.60433,-0.58279 -16.9896,0.61264 -20.14923,3.77227 -2.1304,2.1304 -2.25076,2.63142 -2.25076,9.36885 0,6.1888 0.28721,7.67981 2.2,11.42068 1.21,2.36643 3.12298,4.97124 4.25108,5.78847 3.60577,2.61215 17.19984,3.86143 23.37078,2.14774 z m 68.32002,-1.26329 c 5.68578,-2.78693 8.24632,-8.66586 8.25365,-18.95015 0.004,-5.8012 -0.16101,-6.427 -2.2463,-8.5123 -3.1416,-3.1416 -9.53357,-4.34392 -20.14924,-3.79005 -17.33629,0.90453 -22.05836,4.72252 -19.93013,16.11435 1.47946,7.91915 5.83891,13.96131 11.63994,16.13284 4.40112,1.64749 18.29887,1.03123 22.43208,-0.99469 z m 9.45811,-33.88861 c 3.38227,-0.86064 3.55585,-0.85563 -24.8,-0.71602 -38.12425,0.18769 -83.00831,-0.12273 -84.59999,-0.58511 -0.77,-0.22368 -1.4,-0.0452 -1.4,0.39654 0,0.44177 1.17,0.94841 2.6,1.12588 4.8391,0.60052 105.78163,0.39408 108.19999,-0.22129 z"
       id="path1"
       inkscape:export-filename="LogoJSvect.svg"
       inkscape:export-xdpi="53.370892"
       inkscape:export-ydpi="53.370892" />
  </g>
</svg>
